<svg xmlns="http://www.w3.org/2000/svg" xmlns:xlink="http://www.w3.org/1999/xlink" preserveAspectRatio="xMidYMid meet" version="1.0" viewBox="0.8 0.3 158.4 65.5" zoomAndPan="magnify" style="fill: rgb(0, 0, 0);" original_string_length="2838" width="205.25350301991537px" height="85.08690670643765px"><g><g><g id="__id1_s7684p18nh"><path d="M5.047,3.876L0.798,0.331h33.239c0.176,4.321,3.678,7.779,8.043,7.779c4.351,0,7.852-3.458,8.042-7.779 h109.08l-4.249,3.545l4.249,3.734l-4.249,3.546l4.249,3.735l-4.249,3.546l4.249,3.736l-4.249,3.529l4.249,3.75l-4.249,3.546 l4.249,3.735l-4.249,3.545l4.249,3.736l-4.249,3.545l4.249,3.75l-4.249,3.545l4.249,3.722l-4.249,3.545l4.189,3.691H50.182 c0-4.468-3.619-8.101-8.101-8.101c-4.483,0-8.102,3.633-8.102,8.101H0.857l4.19-3.691l-4.249-3.545l4.249-3.722l-4.249-3.545 l4.249-3.75l-4.249-3.545l4.249-3.736l-4.249-3.545l4.249-3.735l-4.249-3.546l4.249-3.75l-4.249-3.529l4.249-3.736l-4.249-3.546 l4.249-3.735L0.798,7.61L5.047,3.876z" style="fill: rgb(239, 32, 42);"/></g><g id="__id2_s7684p18nh"><path d="M40.554,53.166c0-0.57,0.467-1.036,1.042-1.036l0,0c0.575,0,1.042,0.466,1.042,1.036l0,0 c0,0.575-0.466,1.042-1.042,1.042l0,0C41.021,54.208,40.554,53.741,40.554,53.166z M40.554,48.55c0-0.575,0.467-1.042,1.042-1.042 l0,0c0.575,0,1.042,0.467,1.042,1.042l0,0c0,0.569-0.466,1.036-1.042,1.036l0,0C41.021,49.586,40.554,49.119,40.554,48.55z M40.554,43.928c0-0.575,0.467-1.042,1.042-1.042l0,0c0.575,0,1.042,0.467,1.042,1.042l0,0c0,0.575-0.466,1.035-1.042,1.035l0,0 C41.021,44.963,40.554,44.503,40.554,43.928z M40.554,39.305c0-0.575,0.467-1.04,1.042-1.04l0,0c0.575,0,1.042,0.465,1.042,1.04 l0,0c0,0.576-0.466,1.043-1.042,1.043l0,0C41.021,40.348,40.554,39.881,40.554,39.305z M40.554,34.684 c0-0.576,0.467-1.037,1.042-1.037l0,0c0.575,0,1.042,0.461,1.042,1.037l0,0c0,0.575-0.466,1.042-1.042,1.042l0,0 C41.021,35.726,40.554,35.259,40.554,34.684z M40.554,30.067c0-0.575,0.467-1.042,1.042-1.042l0,0 c0.575,0,1.042,0.467,1.042,1.042l0,0c0,0.57-0.466,1.037-1.042,1.037l0,0C41.021,31.104,40.554,30.638,40.554,30.067z M40.554,25.446c0-0.576,0.467-1.043,1.042-1.043l0,0c0.575,0,1.042,0.467,1.042,1.043l0,0c0,0.569-0.466,1.035-1.042,1.035l0,0 C41.021,26.481,40.554,26.016,40.554,25.446z M40.554,20.823c0-0.575,0.467-1.041,1.042-1.041l0,0 c0.575,0,1.042,0.466,1.042,1.041l0,0c0,0.575-0.466,1.035-1.042,1.035l0,0C41.021,21.858,40.554,21.398,40.554,20.823z M40.554,16.201c0-0.575,0.467-1.041,1.042-1.041l0,0c0.575,0,1.042,0.466,1.042,1.041l0,0c0,0.576-0.466,1.042-1.042,1.042l0,0 C41.021,17.243,40.554,16.777,40.554,16.201z M40.554,11.58c0-0.569,0.467-1.037,1.042-1.037l0,0c0.575,0,1.042,0.468,1.042,1.037 l0,0c0,0.575-0.466,1.041-1.042,1.041l0,0C41.021,12.621,40.554,12.155,40.554,11.58z" style="fill: rgb(255, 255, 255);"/></g></g><g id="__id3_s7684p18nh"><path d="M56.568 7.45H150.822V58.694H56.568z" style="fill: rgb(254, 212, 231);"/></g></g></svg>